<svg xmlns="http://www.w3.org/2000/svg" viewBox="0 0 500 500"><g id="freepik--background-complete--inject-1"><path d="M460.32,96.47h-98.1S372,69.9,386.92,69.9s19.66,18.34,19.66,18.34,10.09-10,18.39-10,15.51,13.16,15.51,13.16S452.2,84.36,460.32,96.47Z" style="fill:#ebebeb"></path><path d="M426.84,292.61H381s10.25-14.84,18.32-14.84,10.45,9.89,10.45,9.89,5.7-4.62,11-3.79S426.84,292.61,426.84,292.61Z" style="fill:#ebebeb"></path><path d="M129,261.9H39.68s12.23-27.3,25.31-29,19.34,20.28,19.34,20.28,8.43-7.77,15.07-7.77,11.75,10.24,11.75,10.24S124.42,248.63,129,261.9Z" style="fill:#ebebeb"></path><path d="M204.56,439.57H144.25s10.36-19.78,21.6-20.07,17.15,15,17.15,15S200.48,420.44,204.56,439.57Z" style="fill:#ebebeb"></path><path d="M341.06,74H300.35s7-13.35,14.58-13.54,11.57,10.1,11.57,10.1S338.3,61.07,341.06,74Z" style="fill:#ebebeb"></path><path d="M123.82,229.18H83.11s7-13.35,14.58-13.54,11.57,10.1,11.57,10.1S121.07,216.27,123.82,229.18Z" style="fill:#ebebeb"></path></g><g id="freepik--World--inject-1"><path d="M396.57,250a145.85,145.85,0,0,1-28,86.16v0A146.58,146.58,0,1,1,250,103.43c4,0,8,.16,11.94.48A146.39,146.39,0,0,1,365.22,159.4a147.42,147.42,0,0,1,9.15,13A145.9,145.9,0,0,1,396.57,250Z" style="fill:#455a64"></path><g style="opacity:0.1"><path d="M281.65,319.18c-1.85,4.93,1.23,5.13,1.44,7.18s0,6-6,11.91-15.8,4.72-17.86,7.19-5.54,12.93-10.46,16.42-5.75,1.43-12.73,2.87-12.32,10.47-14.37,14.78.41,11.5-4.52,11.7S210,380.76,205.49,375s-6-10.88-7.39-17.66.82-20.94,0-26.48-15.6-15.4-20.94-22.17-12.72-20.32-12.31-24.84A18.37,18.37,0,0,1,171,272.58c2.47-1.85,1.44-2.87,1.85-4.52s2.47-2.05,2.88-4.1-1.24-8.21-3.29-9.24-3.49,2.46-4.72,1.85-4.93-4.93-6.36-5.34-1,2.67-3.08-1.23-3.08-13.75-4.72-15.4-2.88,2.88-6.78,0-5.54-8.41-7.18-9.23-3.9.2-5.59-3.08,1.48-9.24,0-8.62-4.68,5.33-5.5.82,4.11-19.71,3.29-27.92,2-16.83,7.8-23.81c0,0,.82-4.52,1.64-7.39s18.47-14.37,20.53-17.66c.85-1.37,1.14-3.52,1.45-5.84A145.87,145.87,0,0,1,250,103.43c4,0,8,.16,11.94.48l.41.55c1.78,2.25,3.7,3.69,8.9,5.61s6.43,4.38,5.34,6.43-2.88,2.46-4.93,2.6-4-1-6.16.41-4.38,8.76-7.25,9.17-7.94-6.57-9-8.62,2.46-6.44.78-8.49-4.61-1.64-9.27-2-15.46,1.37-15,3.15,15.87-.28,16.28,3.28-11.35,9.58-13.41,9-4.79-4.1-7.8-4.51-5.48,2-7.37,2.33-4.12-2.06-7-1.51-3.56,3-5.06,4-5.07,1-5.48,3.14,4.52,3.43,5.75,4.8-1.51,6-.27,7,8.89-5.75,10.81-7.39,3.56-8.76,7.66-8.63,5.48,7.12,6.85,7.8,4.38-1.64,8.89-.68,7.66,10.81,8.48,13.82,2.74,6,1.1,7.26-9-.82-10-2.74,4.93-4.79,4.52-5.47-3.84-1.65-5.61-.58-2.6,3.31-4.52,3.86-7-5.2-8.35-3.56,1.37,6.84,2.74,8.08,6.43,1.91,6.84,3.28-3.42,4.38-8.07,4.11-8.49-3.84-10.27-2.33-.82,5.47-2.05,6.84-7.94.41-11.22,4-4.79,8.9-8.08,11.9-4.79-.82-9.17,3.43-5.06,13.68-5.2,17,0,5.88-1.09,5.47-2.6-3.28-3-5.06,1-4.79,1-5.89-6.3-6.7-10-7.25-7,2.46-9.71,4.65-7.66,1.78-9.44,3.56-3.15,17.52-1.78,21.21,3.15,3.7,7.53,1.78,1.91-5.61,4.51-4.79a6.12,6.12,0,0,1,4,5.75c0,2.19-5.2,7.39-4.52,8.9s5.2-.28,7.39.41,3.29,2,2.6,7.66-.27,10,3,11.84,5.14-2.67,6.57-2.05,3.49,3.9,5.55,3.69,1-2.05,4.92-3.28,2.47-2.06,3.29-4.52,3.28-4.52,5.95-3.29.82,3.08,1,5.14,4.92,2.26,8.62,3.49,5.75,0,13.14,2.46,7.8,9.85,10.88,11.09,13.34-.83,20.73,4.51,5.34,15.19,9,18.07,17.45,6.77,22.79,7.8,6.16-2.67,10.47-1.65,6.77,2.26,8.21,8.22C299.54,303.27,283.5,314.25,281.65,319.18Z"></path><path d="M171.35,214.21c.13,1.16,3.55,1.65,7.66,4s5.61,9.17,7.8,9,1.51-3.28,2.33-4.1,2.19-2.6,0-4.38-4.32-5.61-8.32-6.16-4.68-2.19-6.46-2A3.09,3.09,0,0,0,171.35,214.21Z"></path><path d="M193.93,225.71c-.61,1.68,0,2.87,4.38,4s8.48-1.1,7.11-2-3.42-.48-2.6-2,.54-3.7-3-3.29S194.47,224.2,193.93,225.71Z"></path><path d="M209.25,226.18c-1.49.21-2.32,2.81-.82,4.46s1.51,1.36,3.29,0,4.51-2,3.83-3.42S210.76,226,209.25,226.18Z"></path><path d="M221.16,231.77c.67-2.06,4.11,0,5.61,2.15s.82,5.34,0,7.66-1.37,5.07-3.28,4,.13-4.38-.14-6.29S220.61,233.45,221.16,231.77Z"></path><path d="M280.14,117.59c-.71,1.72,2.6,2.33,4.52,3.43s3.42,1.78,4.52,0-.41-3.84-1.92-4.25S280.83,116,280.14,117.59Z"></path><path d="M306,133.61c1.26,1.33,3.42,1.09,4.93,3s.95,5.2,2.87,6.16,3.29,0,3.42-1.37-2.74-4.79-2.46-5.48,4,1,4.79,3-.82,4.93,1.09,5.48,1.51-1.92,2.33-2.47,2.6-.27,2.46-1.91-2.32-5.2-4.1-6.43-3.15-2.6-6.16-3.29-5.89-.13-7.39,1.1S305.23,132.79,306,133.61Z"></path><path d="M365.22,159.4a2.46,2.46,0,0,1-.77,1.44c-2.88,2-6.3-5.06-10.27-6.43s-5.74-6.43-6.57-5.34-.55,2.6-1.78,4.38-3,1.37-3.83,4.79,3.83,9.72,2.74,11.77-2.46,1.37-4.66,1.23-1.77,1.78-4.64,1-.42-4.38-4.93-8.62-6-5.06-5.06-7-.42-4.65,1.64-4.93,3.69,2.74,5.06,3.56,3.15-1.64,3.28-3.83-4.79-5.2-6.57-6.9-1.91-7.88-1.23-9.12,2.74-.82,3.29-3.83c.32-1.77-2.48-4.72-4.85-6.86A147,147,0,0,1,365.22,159.4Z"></path><path d="M385.66,282.09c.41-4.38-1.78-4.65.41-12.72s-2.33-16.7-4-18.48-5.2-1.23-8.07.55-.83,3.15-2.74,3.83-3.83-.41-5.61-.27-3.42,4.65-7.26,4.51-6.29-5.61-9.16-9.51-8.76-6.36-10.68-11.15,1.78-12.18,1-17.79-4.52-4.39-5.2-7.53.55-1.64,1.5-4.66-1.09-4.65.83-9.85,5.33-7.8,4.51-10.12-3.42-6.16-3.56-8.89,2.6-2.61,7.8-6.44S352,170,356,171.38a56.17,56.17,0,0,0,8.76,2.46c2.33.41,5.48,6.43,6.43,6.16s1.1-2.05,1.51-4.65a5.78,5.78,0,0,1,1.71-2.95,146.66,146.66,0,0,1-5.79,163.76C382.54,314.86,385.25,286.47,385.66,282.09Z"></path></g><path d="M363.55,342.68A146.57,146.57,0,1,1,250,103.43q6,0,11.95.48c1.09.08,2.18.19,3.26.3a134.31,134.31,0,1,0,98.34,238.47Z" style="opacity:0.1"></path><path d="M396.57,250a145.85,145.85,0,0,1-28,86.16v0a147.34,147.34,0,0,1-52.65,44.75,148.19,148.19,0,0,0,46.23-41.41l0,0a147.24,147.24,0,0,0-3.38-177.79,148.31,148.31,0,0,0-39.37-34.91,146.53,146.53,0,0,0-64.51-20.9q-5.94-.48-12-.48a148.1,148.1,0,0,0-35.4,4.27,146.52,146.52,0,0,1,42.5-6.26q6,0,11.95.48a145.64,145.64,0,0,1,64.12,20.78,147.15,147.15,0,0,1,39.15,34.71A146.21,146.21,0,0,1,396.57,250Z" style="fill:#fff;opacity:0.30000000000000004"></path><path d="M181.24,195a35,35,0,0,0,20.24-5.41,42.14,42.14,0,0,0,5.92-4.54c-1.81,11.08-17.48,17.23-26.16,9.95Z" style="fill:#263238"></path><path d="M318.76,195a35,35,0,0,1-20.24-5.41,42.14,42.14,0,0,1-5.92-4.54c1.81,11.08,17.48,17.23,26.16,9.95Z" style="fill:#263238"></path><path d="M318.22,208.53c-.35,6.94-3,14.74-9.16,18.85-6.7,4.39-15.95,2.26-20.77-3.86a24.41,24.41,0,0,1-5.44-12.92,37.75,37.75,0,0,0,7.76,10.71c4.33,4.2,11.1,5.8,16.45,2.79,5.64-3.34,8.44-9.54,11.16-15.57Z" style="fill:#263238"></path><path d="M217.15,210.6c-.77,6.94-4.67,14.29-11.3,17.56A15.47,15.47,0,0,1,185.73,222a28.06,28.06,0,0,1-3.95-13.45,49.18,49.18,0,0,0,6.55,11.59,13.51,13.51,0,0,0,15.94,4.53c6-2.61,9.78-8.17,12.88-14.05Z" style="fill:#263238"></path><path d="M277.2,241.52c-12-9.23-27.18-15.72-41.55-8.17A69.87,69.87,0,0,0,222.8,242a36.13,36.13,0,0,1,11-11.79c14.77-10.26,34.36-2.9,43.38,11.35Z" style="fill:#263238"></path></g></svg>
