<svg xmlns="http://www.w3.org/2000/svg" xmlns:xlink="http://www.w3.org/1999/xlink" viewBox="0 0 500 500"><defs><clipPath id="freepik--clip-path--inject-50"><circle cx="238.55" cy="258.32" r="148.18" transform="translate(-112.79 244.34) rotate(-45)" style="fill:#878787;stroke:#263238;stroke-linecap:round;stroke-linejoin:round"></circle></clipPath><clipPath id="freepik--clip-path-2--inject-50"><path d="M341.64,285.5,231.87,258.39s-11-3.41-20,2.25-11.44,6.43-15.58,13.55a15.66,15.66,0,0,0,5.5,21.18c7.85,4.77,60.66,14.45,60.66,14.45s13,7,18.69,8.4,17,2.86,19.34,2.57a29.75,29.75,0,0,0,4.67-1.06l12.61,2.73-4.67,2.31s-11-3.41-15.21,5.43,2.9,14.22,9.73,16.06a21.57,21.57,0,0,0,13.75-.51c2.14-.82,4.72-.06,6.62-3.41s2.76-5.16,1.8-6.59l-1.92-2.86a13,13,0,0,0,3.39-.82,29.4,29.4,0,0,0,4.91-3.5L354.7,335s5.27,4.76,8.66,5.18,4.33-.86,4.33-.86l26.15,9.84s2.44,2.72,4.59,3.14a10.36,10.36,0,0,0,4.25-.15l48.49,17,.44,2.81,3.42-6-4.15.92-122.8-46.55s22.75-5.94,34.62-13.27l51.79,16.66-.63-1.86-47.5-18.3s1.85-4.34.51-6.35a25.61,25.61,0,0,0-4.11-4.28L391,241.4l-6.21-1.22-37.73,44.16S345.93,285.11,341.64,285.5Z" style="fill:#fff;stroke:#263238;stroke-linecap:round;stroke-linejoin:round"></path></clipPath></defs><g id="freepik--earth-globe--inject-50"><circle cx="238.55" cy="258.32" r="148.18" transform="translate(-112.79 244.34) rotate(-45)" style="fill:#878787"></circle><g style="clip-path:url(#freepik--clip-path--inject-50)"><path d="M233.22,189.72l14.07,6.33,3.87,6.33,6.33,2.46.7,6.69-2.46,3.87-4.92,1-10.56-4.22v-1.41l6-2.46L244.12,201l-9.49-3.52-4.22-5.63ZM321.84,352.2l-11.25-4.58-13.72-4.92H286l-10.2-2.11-11.25,2.46-6.33.35h-3.87l-7.38,4.22-7,2.82-9.49-6,2.46-9.85-6-2.46h-7L218.8,329l.71-6.33L217,319.14l-4.92.7-1.41,3.52-6,.35-5.28-6.33-2.11-8.44,5.28-9.85,10.19.71,2.82,2.46h4.22l5.27-3.17,4.57,1.41L236,311.4l2.47-.35-.71-8.09-2.11-4.22.71-6.68,13-5.63,1.76-13,5.62-4.57,4.58-8.09,3.51-.7,8.09-5.28.35-2.81-5.62.35-1.06-2.81h-3.87l-6,1.4,2.82-4.57,12.31-3.51,2.81-3.17,4.92,7.74,3.17,3.16,4.92-1.4-2.11-4.58-7.38-5.27-8.44-9.5-8.8-6-8.44-1.41-4.22-4.22-5.62-1.41-.71,1.41-.7,10.2,1.41,3.51-3.17,11.26-7-5.63,1-4.92-7.38-3.52L223,225.24l1.76-8.79,10.2-7.39.7-8.44-3.87.36-2.46-3.17-1-5.27-2.46-.36-1.41,5.63-3.87.7-1.76-12.3L216,184.45l-4.92-2.11-5.63,2.81,7,6.68,1.41,6-12.66-9.49-8.79-9.5-.71-9.49-9.14-2.82-7,4.57a55.62,55.62,0,0,1-5.28,2.82c-1.76.7-8.44,1.4-8.44,1.4l-1.41,6-8.08.35.7,3.87,13,2.11,6.68,7.39v12.31l-3.87,10.9.71,11.6-9.85,17.24-2.11,25.67,3.17,14.77,4.57,11.25,5.27.71-1.76-5.63-2.81-4.22-1.76-7.74,3.17-.7,4.92,12.66,3.52,11.25v9.15l6.68,8.08,12,8.8L212.82,336l5.63,5.27,4.22,5.63,6.33,3.87,7.74,2.11,7.74-.35s-.36,3.52-.36,5.27-4.92,7.74-4.92,7.74l-3.87,7,2.81,7.74,7.74,3.17,10.9,11.25,4.93,2.11v5.27l.61,2.46a147.58,147.58,0,0,0,73.76-34.72l.18-2.55,9.5-17.23-4.57-3.17Zm36.58-138.92-3.87-6.68-4.92-7.73-1.41-10.55,6.33,1.05.35-3.52-4.57-.35,3.87-1.76,4.22-2.46v-3.51l-4.22-5.63-.9-7.57a148.25,148.25,0,0,0-173.91-42.13l8.11,5.74-4.92,6.33-6.68,1.41-.71,9.49-2.81,1.06-3.52,3.87.36,6.33,6,.7-2.46,6h6l10.2-13,1.06-5.63,9.84-.71,2.46-4.22,10.2-1.05,1.06-6,7.38-.35s5.28-2.81,6.33-2.81,6,1.75,6,1.75l5.28,4.22h7.38l6.33-3.86,8.09.7a8.67,8.67,0,0,0,3.87,1.41c1.76,0,7-2.47,7-2.47l10.2,6.33,4.22,3.17v5.27l5.28.71,1.75-3.17,4.58,2.11-.36,2.82-10.55,2.81,6,7.74,12.66,7,5.28,7,7.74.71,1.75-3.52,2.82-.7-9.15-7-5.62-.7,4.57-1.41-4.22-6,6-.36,7.73,4.22,1.76,8.44,3.87,4.58,3.17,10.19,7.73,5.63v11.61l8.09,5.27-.35,3.87-1.06,4.57,2.11,6.33.71,3.17,6,1,2.81-6ZM363,177.86v2l-1.76,5.62,1.06,4.93,3.86,1.4v6.68l-4.22-1.75-1.05,19-4.22,7.73,2.81,9.85,4.57,4.22v19l4.58,14.77,4.92,11.26,8.09,2.1,2.81-7,1.15-.9a149.22,149.22,0,0,0,1.14-18.42A147.48,147.48,0,0,0,363,177.86Zm-81.24-2.2-23.21-10.2-10.2.35-2.46,6.68-4.22-4.57-7.74,1.76-.7,11.6,6.33,4.57,4.57-6.68,5.28,5.28,10.9,9.49,2.11,10.2,9.14,11.61,14.77-2.47L286,208l-3.16-6L282.1,188l3.52-6Zm19,7.73-5.27-1.4-4.57,3.86,2.46,10.2h4.57Zm32.71,6.68-12-6.33L319,179.52l-2.81,1.06,2.46,7,2.11,9.15,5.27,2.11,1.06-1.41L324,192.18l9.15,3.52ZM230.76,317l-1.41,1.41,10.55,3.16,4.22,4.92,6.69.71,2.46-3.87L245.18,322Zm31.3,6.68-7.39,2.11,1.06,2.81h9.14l1.76-2.81-3.16.35Z" style="fill:#FFC107"></path><path d="M274.46,320.49A148.82,148.82,0,0,1,125.64,171.68c0-3.81.15-7.59.43-11.33a148.81,148.81,0,1,0,260.48,109.2A148.44,148.44,0,0,1,274.46,320.49Z" style="opacity:0.30000000000000004"></path></g><circle cx="238.55" cy="258.32" r="148.18" transform="translate(-112.79 244.34) rotate(-45)" style="fill:none;stroke:#263238;stroke-linecap:round;stroke-linejoin:round"></circle></g><g id="freepik--Clouds--inject-50"><path d="M405.81,210.08a17.31,17.31,0,0,0,.36-3.55,17.69,17.69,0,0,0-26.34-15.44,34.32,34.32,0,0,0-64.25-9.39,25.85,25.85,0,0,0-4.34-.38,25.14,25.14,0,0,0-20.74,10.89,17.67,17.67,0,0,0-28.07,14.32,18,18,0,0,0,.35,3.55Z" style="fill:#fff;stroke:#a1a1a1;stroke-miterlimit:10"></path><path d="M194.63,178.29a12.54,12.54,0,0,0,.24-2.47,12.29,12.29,0,0,0-18.28-10.72,23.83,23.83,0,0,0-44.6-6.51,17.67,17.67,0,0,0-3-.26,17.47,17.47,0,0,0-14.39,7.55,12.28,12.28,0,0,0-19.49,9.94,12.54,12.54,0,0,0,.25,2.47Z" style="fill:#fff;stroke:#a1a1a1;stroke-miterlimit:10"></path><path d="M232.72,361.12a14.19,14.19,0,0,0,.28-2.79,13.92,13.92,0,0,0-20.71-12.15,27,27,0,0,0-50.53-7.38,20.23,20.23,0,0,0-3.42-.3A19.81,19.81,0,0,0,142,347.06,13.9,13.9,0,0,0,120,358.33a13.47,13.47,0,0,0,.28,2.79Z" style="fill:#fff;stroke:#a1a1a1;stroke-miterlimit:10"></path><path d="M320.17,245.64a7.69,7.69,0,0,0,.16-1.6,8,8,0,0,0-7.95-7.95,7.85,7.85,0,0,0-3.88,1,15.42,15.42,0,0,0-28.86-4.22,11.49,11.49,0,0,0-1.95-.17,11.28,11.28,0,0,0-9.32,4.89A7.94,7.94,0,0,0,255.76,244a8.43,8.43,0,0,0,.16,1.6Z" style="fill:#fff;stroke:#a1a1a1;stroke-miterlimit:10"></path><path d="M276.85,392.34a8.43,8.43,0,0,0,.16-1.6,8,8,0,0,0-7.95-7.95,7.85,7.85,0,0,0-3.88,1,15.42,15.42,0,0,0-28.87-4.22A11.32,11.32,0,0,0,225,384.31a7.93,7.93,0,0,0-12.6,6.43,7.69,7.69,0,0,0,.16,1.6Z" style="fill:#fff;stroke:#a1a1a1;stroke-miterlimit:10"></path></g><g id="freepik--Airplane--inject-50"><path d="M381,217.35q1.08,3.77,2,7.61c28.79,14.62,45.2,29.9,42.68,42.66-3.4,17.24-40.52,25.62-93.47,24v16c71.93,4.18,123.34-5.43,127.66-27.31C463.5,261.66,432.29,238.34,381,217.35Z" style="fill:#fff;stroke:#263238;stroke-miterlimit:10"></path><path d="M217.41,260,163.7,220.38l2.09-3.06-5.72,3.84-.13,4.44,1.86-1.87,27.12,21A5.11,5.11,0,0,0,192,247.8a27.15,27.15,0,0,1,3.25,1.14l17,14.51Z" style="fill:#fff;stroke:#263238;stroke-linecap:round;stroke-linejoin:round"></path><polygon points="328.22 283.1 313.82 271.82 311.14 271.55 324.11 283.78 328.22 283.1" style="fill:#fff;stroke:#263238;stroke-linecap:round;stroke-linejoin:round"></polygon><path d="M341.64,285.5,231.87,258.39s-11-3.41-20,2.25-11.44,6.43-15.58,13.55a15.66,15.66,0,0,0,5.5,21.18c7.85,4.77,60.66,14.45,60.66,14.45s13,7,18.69,8.4,17,2.86,19.34,2.57a29.75,29.75,0,0,0,4.67-1.06l12.61,2.73-4.67,2.31s-11-3.41-15.21,5.43,2.9,14.22,9.73,16.06a21.57,21.57,0,0,0,13.75-.51c2.14-.82,4.72-.06,6.62-3.41s2.76-5.16,1.8-6.59l-1.92-2.86a13,13,0,0,0,3.39-.82,29.4,29.4,0,0,0,4.91-3.5L354.7,335s5.27,4.76,8.66,5.18,4.33-.86,4.33-.86l26.15,9.84s2.44,2.72,4.59,3.14a10.36,10.36,0,0,0,4.25-.15l48.49,17,.44,2.81,3.42-6-4.15.92-122.8-46.55s22.75-5.94,34.62-13.27l51.79,16.66-.63-1.86-47.5-18.3s1.85-4.34.51-6.35a25.61,25.61,0,0,0-4.11-4.28L391,241.4l-6.21-1.22-37.73,44.16S345.93,285.11,341.64,285.5Z" style="fill:#fff"></path><g style="clip-path:url(#freepik--clip-path-2--inject-50)"><path d="M336.12,328.57,354.7,335s5.27,4.76,8.66,5.18,4.33-.86,4.33-.86l26.15,9.84s2.44,2.72,4.59,3.14a10.36,10.36,0,0,0,4.25-.15l48.49,17,.44,2.81,3.42-6-4.15.92-122.8-46.55s22.75-5.94,34.62-13.27l51.79,16.66-.63-1.86-47.5-18.3s1.85-4.34.51-6.35a25.61,25.61,0,0,0-4.11-4.28L391,241.4l-4.13-.81c-2.24,3-29,39.11-33.12,45.11-4.34,6.27-14,5.79-14,5.79s-75.21-16.88-86.3-18.32-24.59-3.86-33.75,6.26-8.68,18.81-8.68,18.81l.86.7c17.76,4.88,50.49,10.88,50.49,10.88s13,7,18.69,8.4,17,2.86,19.34,2.57a29.75,29.75,0,0,0,4.67-1.06l12.61,2.73-4.67,2.31s-11-3.41-15.21,5.43,2.9,14.22,9.73,16.06a21.57,21.57,0,0,0,13.75-.51c2.14-.82,4.72-.06,6.62-3.41s2.76-5.16,1.8-6.59l-1.92-2.86a13,13,0,0,0,3.39-.82A29.4,29.4,0,0,0,336.12,328.57Z" style="stroke:#263238;stroke-linecap:round;stroke-linejoin:round;stroke-width:0.75px;opacity:0.2"></path></g><path d="M341.64,285.5,231.87,258.39s-11-3.41-20,2.25-11.44,6.43-15.58,13.55a15.66,15.66,0,0,0,5.5,21.18c7.85,4.77,60.66,14.45,60.66,14.45s13,7,18.69,8.4,17,2.86,19.34,2.57a29.75,29.75,0,0,0,4.67-1.06l12.61,2.73-4.67,2.31s-11-3.41-15.21,5.43,2.9,14.22,9.73,16.06a21.57,21.57,0,0,0,13.75-.51c2.14-.82,4.72-.06,6.62-3.41s2.76-5.16,1.8-6.59l-1.92-2.86a13,13,0,0,0,3.39-.82,29.4,29.4,0,0,0,4.91-3.5L354.7,335s5.27,4.76,8.66,5.18,4.33-.86,4.33-.86l26.15,9.84s2.44,2.72,4.59,3.14a10.36,10.36,0,0,0,4.25-.15l48.49,17,.44,2.81,3.42-6-4.15.92-122.8-46.55s22.75-5.94,34.62-13.27l51.79,16.66-.63-1.86-47.5-18.3s1.85-4.34.51-6.35a25.61,25.61,0,0,0-4.11-4.28L391,241.4l-6.21-1.22-37.73,44.16S345.93,285.11,341.64,285.5Z" style="fill:none;stroke:#263238;stroke-linecap:round;stroke-linejoin:round"></path><polygon points="222.98 271.5 214.75 268.01 210.81 272.19 211.25 272.5 220.56 276.39 222.98 271.5" style="fill:#263238"></polygon><path d="M208.28,263.92l-.76-.63c-1.78,1.1-3.22,2-4.46,2.91l.85.94Z" style="fill:#263238"></path><polygon points="213.7 267.56 209.17 264.6 204.64 267.94 204.74 268.04 209.91 271.58 213.7 267.56" style="fill:#263238"></polygon><polygon points="227.37 273.07 224 271.87 221.54 276.84 226.7 279.89 227.93 280.21 227.37 273.07" style="fill:#263238"></polygon><path d="M232,276.71c-.39-2.78-.84-2.28-.84-2.28l-2.7-1,.55,7,2.8.74A10.92,10.92,0,0,0,232,276.71Z" style="fill:#263238"></path><ellipse cx="305.94" cy="334.31" rx="8.58" ry="8" transform="translate(-81.26 569.77) rotate(-78.84)" style="fill:#263238;stroke:#263238;stroke-linecap:round;stroke-linejoin:round"></ellipse><path d="M362.7,307l-5-1.53a3.19,3.19,0,0,1,1.24-2.69c1.33-.8,7.43.72,7.43.72" style="fill:#fff;stroke:#263238;stroke-linecap:round;stroke-linejoin:round"></path><path d="M304.33,320a150.13,150.13,0,0,1-15.48-5.27c-3.81-1.58-2-5.33-2-5.33l-14.57-4S247.38,301,222.51,295c-16.58-4-24.69-8.89-28.26-11.71a15.66,15.66,0,0,0,7.5,12.06c7.85,4.77,60.66,14.45,60.66,14.45s13,7,18.69,8.4,17,2.86,19.34,2.57A28.38,28.38,0,0,0,304.33,320Z" style="fill:#263238;stroke:#263238;stroke-linecap:round;stroke-linejoin:round;stroke-width:0.75px"></path><path d="M337.15,317.63l-27.25-5.37,2.17,1.52,16.19,6.46C329.06,320,332.52,319.09,337.15,317.63Z" style="fill:#263238;stroke:#263238;stroke-linecap:round;stroke-linejoin:round;stroke-width:0.75px"></path><line x1="350.21" y1="290.78" x2="345.02" y2="289.9" style="fill:#fff;stroke:#263238;stroke-miterlimit:10"></line><line x1="362.76" y1="292.89" x2="353.81" y2="291.38" style="fill:#fff;stroke:#263238;stroke-miterlimit:10"></line></g></svg>