<?xml version="1.0" encoding="UTF-8"?>
<svg width="78px" height="66px" viewBox="0 0 78 66" version="1.1" xmlns="http://www.w3.org/2000/svg" xmlns:xlink="http://www.w3.org/1999/xlink">
    <title>Combined Shape</title>
    <defs></defs>
    <g id="home-desktop" stroke="none" stroke-width="1" fill="none" fill-rule="evenodd">
        <g id="alibaba-footer" transform="translate(-206.000000, -298.000000)" fill="#233F9F">
            <g id="footer">
                <g id="log-address">
                    <g transform="translate(198.000000, 60.000000)">
                        <g id="Group-17" transform="translate(0.000000, 224.000000)">
                            <path d="M25.4073562,67.6848606 C25.3566983,67.856238 25.2934323,68.0298979 25.2175582,68.2058569 C24.7171224,69.3634093 24.1180605,70.0535059 23.4190027,70.2761469 C23.2180978,70.3738918 22.9683365,70.4576084 22.6688056,70.5268444 L21.5122326,70.8196263 C21.4410027,70.8336545 21.3478559,70.8476827 21.2337054,70.8617109 C21.1195549,70.8752866 21.0556306,70.8684988 21.0414759,70.8404424 C21.0268647,70.8128385 21.0985512,70.7503904 21.2551657,70.6526456 L21.5336929,70.4852123 C21.5478476,70.4711841 21.8117636,70.317779 22.3263541,70.0254495 C23.8112239,69.1606792 24.5541154,68.4850633 24.5541154,67.9967916 C24.4102858,68.0529044 24.2180563,68.0805082 23.975144,68.0805082 C23.3331616,67.9832159 23.0112571,67.732066 23.0112571,67.327511 C23.0112571,67.0211533 23.1683282,66.5889944 23.482927,66.0310343 C23.8395332,65.4178664 24.1536754,65.1110562 24.424897,65.1110562 C24.7253412,65.1110562 24.9856044,65.2228293 25.2070563,65.4454703 C25.4280517,65.6690163 25.5385494,65.9265016 25.5385494,66.2192836 C25.5520146,66.3122669 25.5592817,66.4556196 25.5599578,66.6493418 C25.7993169,66.6134865 25.9960106,66.5135862 26.1504674,66.349641 C26.1783242,66.335561 26.224153,66.2865081 26.2870552,66.2024824 C26.3504068,66.1184567 26.3957863,66.0766709 26.4240924,66.0766709 L26.5503462,66.1606966 C26.5925806,66.1888566 26.6415545,66.2024824 26.6977173,66.2024824 C26.9367459,66.2024824 27.1259021,66.0907509 27.2674322,65.8668337 C27.3649308,65.6987822 27.427833,65.6147565 27.4570377,65.6147565 C27.4992721,65.6429164 27.5693632,65.6851564 27.6677603,65.740568 C27.920268,65.7968879 28.1660362,65.5870507 28.4055142,65.1110562 C28.4747067,65.1110562 28.5600741,65.1460291 28.6584712,65.2159748 C28.7847251,65.1882691 28.8759334,65.1601091 28.9320962,65.1319491 C29.0021873,65.3140806 29.0372328,65.446705 29.0372328,65.5307307 C29.0372328,65.7269422 29.0021873,65.8809136 28.9320962,65.9926452 C28.7213735,66.2024824 28.4958239,66.3632668 28.2572445,66.4754525 L27.6044087,66.7902084 C27.5761027,66.7902084 27.4148033,66.8460741 27.1191626,66.9578057 L26.8873227,67.0422856 L26.5081118,67.2307757 L26.2978385,67.2939086 C26.158854,67.3356539 25.8614483,67.4656789 25.4073562,67.6848606 Z M41.7627587,67.3074893 L41.7935337,67.251647 C41.7935337,68.4047725 42.1986014,68.9808844 43.0091914,68.9808844 C43.4210785,68.9808844 43.7834118,68.8348279 44.0971006,68.5431656 C44.3666911,68.2379795 44.6367362,67.9391045 44.9067814,67.6474422 C44.9917956,67.5924456 45.0418039,67.550522 45.0558972,67.5225729 C45.0877746,67.485088 45.1154271,67.4532497 45.1388545,67.427017 C45.2264689,67.1853984 45.3562708,66.9246703 45.5275309,66.6448325 C46.0757327,65.7591158 46.6369549,65.3160254 47.2129932,65.3160254 L47.4235638,65.3369041 C47.4367025,65.377201 47.4486089,65.4174817 47.4592829,65.4577491 C47.654024,65.5270062 47.7688812,65.5616347 47.8035811,65.5616347 C47.9945205,65.5616347 48.1989738,65.3865604 48.417377,65.0355364 C48.5263606,64.860462 48.6083163,64.7794902 48.6628081,64.7930584 C48.7717918,64.8201949 48.7787667,64.9545645 48.683297,65.1974801 C48.6423192,65.3187191 48.5878274,65.4469611 48.5198216,65.5817683 C48.1645349,66.3367763 47.7765532,66.7144992 47.3541326,66.7144992 L47.3541326,66.7024746 C47.2803988,66.688978 47.1909363,66.6555356 47.0859326,66.6021474 C46.9458515,66.5306961 46.8475254,66.487547 46.7914032,66.473628 C46.6369549,66.4448619 46.4582617,66.5056418 46.2544259,66.6555038 C46.050141,66.8058297 45.948672,66.9594034 45.948672,67.1166889 L45.9420723,67.1202976 C45.9773833,67.2244705 46.0941651,67.4107872 46.2929221,67.6789977 C46.5343261,68.0053709 46.6561647,68.1753194 46.6561647,68.189294 C46.6561647,68.3421124 46.5447824,68.5539846 46.3247457,68.8244596 C46.1047089,69.0953855 45.9164956,69.2306231 45.7601058,69.2306231 C45.674637,69.2306231 45.5218842,69.1891502 45.3018474,69.1057537 C45.0809014,69.0223572 44.9136007,68.9808844 44.7999453,68.9808844 C44.5871825,68.9808844 44.4021515,69.0714936 44.2462164,69.2513595 C44.1743862,69.3352068 44.0393636,69.5430218 43.8402394,69.8766077 C43.6983975,70.1263464 43.5701943,70.3138758 43.4565389,70.4387451 C43.0873863,70.869702 42.7168698,71.0847297 42.3477172,71.0847297 C41.8362681,71.0847297 41.4516583,70.8277784 41.1961611,70.3138758 C40.9970369,69.9113187 40.8979294,69.432127 40.8979294,68.8767515 L40.9351818,68.8091557 C40.9227376,68.8111918 40.9103202,68.8122099 40.8979294,68.8122099 C40.8979294,67.8568559 41.1047573,66.1529539 41.5188697,63.7018528 C41.6184028,63.3278036 41.9046746,62.6561335 42.3758587,61.686393 L42.461238,61.6450318 C42.4753917,61.686393 42.4685431,61.7974389 42.439779,61.9772702 L42.3543997,62.5176634 L41.9905104,65.0519365 C41.8622132,65.952442 41.7969231,66.6659228 41.7969231,67.1919295 C41.7855157,67.2311621 41.7741276,67.269682 41.7627587,67.3074893 Z M55.8956617,66.2090069 C56.1001609,66.0192348 56.2495755,65.8291903 56.3444418,65.6391457 C56.6274676,65.0177984 56.8179571,64.5936313 56.916813,64.3675618 C57.1285181,63.9154227 57.4106412,63.6893531 57.7640849,63.6893531 C58.0322147,63.6893531 58.2579131,63.8163739 58.4411803,64.0708741 C58.70931,63.6191936 58.8713615,63.393124 58.9286889,63.393124 C59.0135515,63.393124 59.1110532,63.4774989 59.2248052,63.6471657 C59.3376545,63.8163739 59.3940791,63.9511903 59.3940791,64.0497804 C59.3940791,64.3886555 59.3024455,64.6926801 59.1191784,64.9609371 C58.9074732,65.27184 58.6384407,65.4272915 58.3143377,65.4272915 C58.2154818,65.4272915 58.0814169,65.3919825 57.9121431,65.3213644 C57.7428693,65.2507463 57.6079016,65.2149787 57.5094971,65.2149787 C57.297792,65.2149787 57.1212958,65.3566734 56.98046,65.6391457 C56.6274676,66.3311112 56.4302072,66.7126322 56.3877759,66.7832503 C56.1446535,67.1716428 55.9075267,67.5025124 55.6755371,67.7761495 C55.6410964,67.8724865 55.6027659,67.9695287 55.5605455,68.0672791 C55.0582939,69.2271023 54.4570584,69.9185528 53.7554643,70.1416306 C53.5538305,70.2395672 53.3031629,70.3234481 53.0025452,70.3928198 L51.8417758,70.6861762 C51.7702874,70.7002319 51.6768027,70.7142876 51.562238,70.7283434 C51.4476733,70.7419457 51.3835171,70.7351445 51.3693111,70.7070331 C51.3546468,70.6793751 51.4265934,70.6168045 51.5837761,70.5188679 L51.863314,70.3511061 C51.87752,70.3370504 52.1423935,70.1833443 52.6588511,69.8904414 C54.1491086,69.0239746 54.8946955,68.3470332 54.8946955,67.8578036 C54.750344,67.9140265 54.5574171,67.9416845 54.3136234,67.9416845 C53.6693117,67.8442013 53.3462392,67.5925587 53.3462392,67.18721 C53.3462392,66.8802513 53.5038803,66.4472446 53.8196205,65.8881899 C54.1775206,65.2738191 54.4928026,64.966407 54.7650083,64.966407 C55.0665425,64.966407 55.32775,65.0783993 55.5500055,65.3014771 C55.7718027,65.5254617 55.8827014,65.7834521 55.8827014,66.0768085 C55.8879774,66.113182 55.8923054,66.1572481 55.8956617,66.2090069 Z M71.8789769,66.7565373 L71.8789769,67.0779804 C71.8789769,67.9802297 72.1701789,68.4306786 72.7530268,68.4306786 C72.8786521,68.1117608 73.0313556,67.743744 73.2115813,67.3275291 C73.5582715,67.3973487 73.7527021,67.6468975 73.7939853,68.0766257 C73.7939853,68.590588 73.6830089,69.0896854 73.4610562,69.5757198 C73.1560931,70.2279699 72.7459244,70.5536445 72.2327696,70.5536445 C71.9415675,70.5536445 71.6778877,70.4117531 71.441286,70.1270694 C71.2051283,69.8428361 71.0737323,69.5513956 71.0457662,69.2527479 C71.0182441,68.9545507 71.0040391,68.7847315 71.0040391,68.7428397 L71.0040391,68.3473456 L71.0357997,68.2884148 C71.0251934,68.2898916 71.0146065,68.2906299 71.0040391,68.2906299 C71.0040391,67.3392719 71.2107244,65.6424969 71.6245512,63.201648 C71.7240156,62.8291634 72.0100899,62.1603027 72.4809491,61.1946184 L72.5662695,61.1534302 C72.5804135,61.1946184 72.5735696,61.3051998 72.5448253,61.4842789 L72.4595049,62.0224118 L72.0958666,64.5460848 C71.9676578,65.4428237 71.9024128,66.1533202 71.9024128,66.6771268 C71.8945918,66.703931 71.8867798,66.7304012 71.8789769,66.7565373 Z M79.7401986,68.2899503 C79.7343335,68.2904034 79.7284743,68.2906299 79.722621,68.2906299 C79.722621,67.3392719 79.9293063,65.6424969 80.3431331,63.201648 C80.4425975,62.8291634 80.7286718,62.1603027 81.199531,61.1946184 L81.2848514,61.1534302 C81.2989954,61.1946184 81.2921516,61.3051998 81.2634072,61.4842789 L81.1780868,62.0224118 L80.8144485,64.5460848 C80.6862398,65.4428237 80.6209947,66.1533202 80.6209947,66.6771268 C80.6150235,66.6975914 80.6090575,66.7178613 80.6030968,66.7379365 C80.6075564,66.7420882 80.6121016,66.7463988 80.6167324,66.7508676 C80.6167324,67.233483 80.659374,67.6261951 80.7442034,67.9290038 C80.9428949,68.411172 81.3325659,68.6522561 81.9145776,68.6522561 C82.2974442,68.6522561 82.6376692,68.5283594 82.93616,68.2801189 C83.2909013,67.9773101 83.517718,67.8122637 83.6166101,67.7845323 C83.6592517,67.7706666 83.7513392,67.7635101 83.8933265,67.7635101 C84.0067348,67.7773758 84.1065342,67.7845323 84.1918173,67.7845323 C84.3192883,67.7845323 84.4113758,67.7635101 84.46808,67.7223604 C84.6381925,67.6123294 84.7656635,67.4607014 84.8509466,67.2674763 C84.8790719,67.1713111 84.9149089,67.0679893 84.9570968,66.9575111 C85.0564425,66.9713768 85.1557882,66.978086 85.2560412,66.978086 C85.4261537,66.978086 85.5890081,66.7580241 85.745058,66.3165584 C85.8158248,66.1242279 85.872529,66.0276154 85.9151706,66.0276154 C85.9718747,66.0276154 86,66.0893401 86,66.2132367 C86,66.5992396 85.8865917,67.0058174 85.659775,67.43297 C85.3903167,67.9428695 85.0777633,68.197372 84.7234756,68.197372 C84.5533631,68.4456126 84.4467592,68.5905314 84.4045713,68.6316812 C84.2199425,68.8383246 84.0489227,68.9416464 83.8933265,68.9416464 C83.723214,68.9143623 83.5884848,68.9004966 83.4891391,68.9004966 C83.2482598,68.9004966 82.8858067,69.2037526 82.4035944,69.8098174 C82.0211814,70.3058512 81.5956733,70.5536445 81.12707,70.5536445 C80.1907707,70.5536445 79.722621,69.8236831 79.722621,68.3628657 C79.7284836,68.3382936 79.7343429,68.3139885 79.7401986,68.2899503 Z M53.4592731,21.7900519 C53.4984383,21.8844945 53.5542943,21.9711497 53.5633832,22.0352712 C55.574857,25.3334713 56.4530176,29.4011298 55.6991281,33.2139591 C55.0455479,37.106319 52.7825573,40.7231385 49.4854062,42.9012826 C46.3174838,45.1064341 42.3556804,46.1280709 38.5212879,45.7060616 C33.5775442,45.3268001 29.1581521,42.2249412 26.4641786,38.1465129 C24.8127937,35.5355897 22.9204683,33.0361751 20.5227955,31.0701125 C18.6068387,29.5868669 16.0822508,28.5146951 13.6449171,29.1570703 C11.5038841,29.59482 9.68575776,30.8974648 8,32.2243003 C9.11166478,28.9315679 11.4351384,25.6810862 14.9495988,24.770958 C17.1778859,24.075728 19.5066477,24.5825699 21.7270027,25.0229706 C21.9890958,23.2665042 23.574379,21.9663447 25.2837681,21.7514464 C26.3582507,21.4861787 27.469585,21.5443355 28.5680294,21.5948705 C27.7951357,22.2554715 26.8292251,22.7914746 26.4719456,23.8078093 C25.9375136,25.2458219 26.5195388,26.7794369 27.1972461,28.0610393 C28.0200466,29.6160281 29.0894063,31.1522941 29.2533385,32.9486914 C29.372652,34.1000625 28.552165,34.9944503 27.8665255,35.8035084 C28.522915,37.2176618 29.7905797,38.292816 31.2039986,38.908184 C33.0880614,39.7493857 35.1415097,40.096835 37.1714919,40.3647537 C40.8525285,40.4393137 44.7880564,39.5633173 47.5615171,36.9898398 C49.1598554,35.3712265 50.2895329,33.1425473 50.1708804,30.8207509 C50.3663761,26.5274243 47.188208,22.7676154 43.4488367,21.0588675 C41.1493249,20.0239756 38.6296946,19.5650178 36.115683,19.6102508 C34.6997853,19.6365953 32.8340657,19.0184106 31.8681551,20.4166579 C31.870634,19.4879725 31.7622272,18.3578096 32.6410489,17.7606674 C33.7206544,17.0841603 35.0625182,16.9062106 36.3141533,16.9912089 C36.3298524,17.4715406 36.8277632,17.9810334 37.3119579,17.710298 C37.7802882,17.6228144 37.8146611,17.1424827 37.7987967,16.7524514 C37.0340004,16.7604045 36.2716829,16.8134249 35.51234,16.9009085 C35.5440688,16.691478 35.6101705,16.2694687 35.6418993,16.0598725 C36.4994032,14.4652841 38.4418007,14.0008585 40.1171474,14.0008585 C44.3327812,13.9557912 48.6887158,15.685913 51.4041723,18.9865984 C52.0547779,19.8276344 52.7509937,20.6370239 53.2918706,21.5358853 C53.3305401,21.6309907 53.3868918,21.7171488 53.4592731,21.7900519 Z M46.172027,24.2428914 C47.8868695,25.4182873 48.4084117,27.6260898 48.8503013,29.549736 C42.2687236,29.5232259 35.6843366,29.5788973 29.1052377,29.5232259 C28.6603734,29.1144717 28.4169541,28.5494731 28.1285855,28.0320272 C27.5543273,26.8432105 27.2897554,25.548353 27.2793444,24.2349383 C33.5748671,24.2377551 39.8735297,24.2216832 46.172027,24.2428914 Z M85.9103331,24.1633277 C85.7863925,24.3994341 85.6669137,24.6410083 85.5532188,24.8822511 C84.8651005,26.2117376 83.5708298,27.0660287 82.2663134,27.7055872 C79.7523018,28.865077 76.973553,29.2392022 74.2450414,29.4940315 C68.4337134,29.600238 62.6169319,29.4940315 56.8026293,29.5415842 C56.7996547,27.7029362 56.3526422,25.8826797 55.6936086,24.1739318 C65.7660154,24.1898379 75.8380916,24.211046 85.9103331,24.1633277 Z M79.7971353,30.4253348 C78.6623349,31.9006273 77.2993185,33.2564583 75.5841455,34.0337041 C72.6122146,35.4427212 69.2750719,35.5915097 66.0572428,35.8433566 C62.6513544,35.8725178 59.2476143,35.8433566 55.8447005,35.856943 C56.5934671,34.1612845 57.0857593,32.2959606 56.9588441,30.4306368 C64.5724341,30.4465429 72.1861893,30.4412409 79.7971353,30.4253348 Z M49.1252843,30.804878 C48.8580683,31.818396 48.8393946,32.8930531 48.4003142,33.8586871 C48.1012042,34.6546558 47.5084375,35.2783082 46.9207937,35.8724681 C40.8764573,35.8724681 34.8294768,35.8459579 28.7849751,35.8834035 C29.2455385,35.4479735 29.6373561,34.9520671 30.0048814,34.4399232 C30.6111989,33.2590596 30.2378897,31.9297388 29.7061018,30.8020613 C36.1789423,30.815482 42.6524438,30.8073633 49.1252843,30.804878 Z M78.1869307,67.0758776 L77.9353065,68.1114933 C77.7118392,68.7738482 77.5303838,69.2180102 77.3909402,69.4430645 C77.1245672,69.894088 76.7822153,70.2042238 76.3634376,70.3730145 L75.6081182,70.6904691 C75.2729173,70.8313568 74.9448673,70.9018006 74.6226275,70.9018006 C74.5529057,70.9018006 74.5108939,70.8734401 74.4970389,70.8171765 C74.4550271,70.6904691 74.6507844,70.4576386 75.0847579,70.1195997 C75.2242014,70.0070725 75.5035355,69.7884222 75.9227602,69.4641062 C76.4680203,69.0414433 76.9149549,68.5204334 77.2649047,67.9001618 C77.3489284,67.7592742 77.5303838,67.2588486 77.8097179,66.3993424 L78.0613421,65.6381832 C78.2007856,65.2017974 78.3125193,64.9831471 78.3974369,64.9831471 C78.4662648,65.0819515 78.5020195,65.1523953 78.5020195,65.1944786 C78.5020195,65.5892385 78.3974369,66.2163715 78.1869307,67.0758776 Z M78.7618729,62.4973517 C78.5099099,62.9940284 78.2718451,63.2423667 78.0476787,63.2423667 C77.8925555,63.114742 77.668389,62.9368967 77.3742827,62.7102131 C77.0801763,62.4835295 76.9326748,62.3268783 76.9326748,62.2416415 L76.9748181,62.1568656 C77.0591047,61.97257 77.2128828,61.6316231 77.4370493,61.1344857 C77.4930909,61.0211439 77.6334191,60.7728055 77.8584822,60.3894707 L77.9423204,60.28304 C77.9974654,60.3401716 78.0965469,60.4111254 78.2368751,60.4959014 C78.5027365,60.6949407 78.6641364,60.8363875 78.720178,60.9216243 C78.8739562,61.1206635 78.9721411,61.3123309 79.0142843,61.4966265 C79.0573243,61.7380538 78.9721411,62.0716288 78.7618729,62.4973517 Z M66.7042359,67.0651797 C66.7042359,67.315074 66.6185285,67.5577642 66.4466577,67.7932502 C66.1047398,68.2651227 65.8558235,68.515017 65.6989971,68.5424829 C65.670276,68.5424829 65.6055395,68.5078129 65.5066112,68.4384728 C65.1779141,68.2164946 65.0069551,68.0917726 64.9928225,68.0638565 C64.7790098,67.9251764 64.6581988,67.8558363 64.6294777,67.8558363 C64.4872398,67.7590304 64.4079148,67.6617742 64.3942381,67.5645181 L64.8861441,66.4825431 C65.0425146,66.219141 65.1779141,66.0039167 65.2918867,65.8377707 L65.4209038,65.6504626 C65.5198321,65.6918865 65.670276,65.7684307 65.8699561,65.8791947 C66.112034,66.0597489 66.282993,66.198429 66.382833,66.295235 C66.5679246,66.4757892 66.6677647,66.6563435 66.6828091,66.8364475 C66.6960299,66.8922798 66.7042359,66.9683737 66.7042359,67.0651797 Z M69.0994854,69.1251194 C68.400605,71.2057712 67.2453781,72.6758703 65.6347165,73.535867 C65.0069551,73.8690594 64.2948539,74.0352054 63.4961335,74.0352054 C62.6117057,74.0352054 61.9269579,73.7682012 61.4428021,73.2341927 C60.9581903,72.7001843 60.7161124,71.9964278 60.7161124,71.122473 C60.7161124,69.7491799 61.3215352,68.0503487 62.5332925,66.0250789 C62.6759863,65.7891427 62.7826647,65.6783787 62.8542395,65.6918865 C62.8825047,65.7058445 62.889799,65.7823888 62.8761223,65.9210689 C62.8469453,66.0597489 62.8182241,66.1777171 62.7899589,66.274523 L62.0846961,67.7725382 C61.7427781,68.4943051 61.5709074,69.1183655 61.5709074,69.6451698 C61.5709074,71.1017611 62.3983489,71.8298316 64.0518642,71.8298316 C65.8198081,71.8298316 67.2171129,71.0526827 68.2437786,69.4997358 C68.571564,69.0139052 68.742523,68.4524309 68.7566556,67.8144124 L68.7995093,66.3163972 C68.8136419,65.8999066 68.934453,65.4077724 69.1633101,64.8390939 L69.5909355,64.0277253 C69.7049081,63.8057471 69.7974539,63.6603131 69.8685729,63.5905228 C69.9401477,63.6603131 69.9684129,63.7503651 69.9542803,63.8611291 L69.847146,64.5891996 L69.7404676,65.6297506 C69.7404676,66.2403032 69.6337892,67.0030438 69.4199765,67.9184225 C69.2918712,68.4731429 69.1847369,68.8752251 69.0994854,69.1251194 Z M57.9047665,70.358966 C57.4765537,71.0313977 57.2629189,71.5673811 57.2629189,71.9660242 L57.6166189,72.2750396 C57.8387425,72.4810499 57.9490969,72.6322132 57.9490969,72.7280838 C57.9490969,72.9207167 57.8892037,73.102202 57.7722469,73.2743231 C57.6534037,73.4459983 57.4987189,73.5320588 57.3072493,73.5320588 C56.9535494,73.5320588 56.7766994,73.2640671 56.7766994,72.7280838 C56.7766994,72.4123798 56.9757146,71.8010377 57.3737449,70.8945034 C57.7863949,69.9326764 58.1113272,69.4729436 58.3471272,69.5139673 C58.1995164,69.7886476 58.0523772,70.0704625 57.9047665,70.358966 Z M51.174926,62.9570646 C51.2039371,62.9015833 51.2684064,62.7973867 51.3692546,62.6444747 C51.38353,62.6165085 51.4194485,62.5750103 51.4770103,62.5190779 C51.5202968,62.5889934 51.5419401,62.6444747 51.5419401,62.6859729 L51.4341844,63.3946002 L51.3043249,64.5619633 L51.0671703,66.4167536 C50.966322,67.1813132 50.7927156,67.8137101 50.548193,68.3134931 L50.05178,69.3144122 C49.7492351,69.9116258 49.5111595,70.2106836 49.3384741,70.2106836 L49.2735444,70.0645377 C49.7197635,68.5918018 50.0011256,67.3829405 50.1162492,66.4379537 L50.2672914,65.1248958 L50.5049065,64.4785158 L51.174926,62.9570646 Z M48.1292185,76.565472 C47.8220858,76.9945598 47.5640587,77.2093283 47.3537978,77.2093283 C47.339959,77.2093283 47.158715,77.0430849 46.8100658,76.7110473 C46.4600774,76.3785605 46.2859761,76.1988379 46.2859761,76.1709809 C46.2859761,76.1161655 46.4600774,75.7904183 46.8100658,75.1950872 C47.1167521,74.6693985 47.2979961,74.4061049 47.3537978,74.4061049 C47.4095995,74.4061049 47.549327,74.5098947 47.7734267,74.7174743 C48.1917164,75.1191544 48.4010845,75.4583808 48.4010845,75.7351536 C48.4010845,76.0397834 48.3104625,76.3161069 48.1292185,76.565472 Z M47.0189875,79.1813345 C46.7123012,79.6104223 46.4542741,79.8251908 46.2440132,79.8251908 C46.2301744,79.8251908 46.048484,79.6589474 45.6998348,79.3269099 C45.3511857,78.9948723 45.1766379,78.8147004 45.1766379,78.7868434 C45.1766379,78.7315787 45.3511857,78.4062808 45.6998348,77.811399 C46.0069675,77.2852611 46.1882115,77.0224168 46.2440132,77.0224168 C46.2998149,77.0224168 46.439096,77.1262066 46.6631957,77.3337862 C47.0819318,77.7350169 47.2912999,78.0742433 47.2912999,78.3510161 C47.2912999,78.6556459 47.2006779,78.9324187 47.0189875,79.1813345 Z M46.0556266,76.565472 C45.7489403,76.9945598 45.4904668,77.2093283 45.2815451,77.2093283 C45.2668135,77.2093283 45.0851231,77.0430849 44.7364739,76.7110473 C44.3878248,76.3785605 44.213277,76.1988379 44.213277,76.1709809 C44.213277,76.1161655 44.3878248,75.7904183 44.7364739,75.1950872 C45.0436066,74.6693985 45.2248506,74.4061049 45.2815451,74.4061049 C45.336454,74.4061049 45.4766279,74.5098947 45.6998348,74.7174743 C46.1185709,75.1191544 46.3274926,75.4583808 46.3274926,75.7351536 C46.3274926,76.0397834 46.2368706,76.3161069 46.0556266,76.565472 Z M42.896966,79.1599243 C42.6388609,79.6380666 42.3940744,79.8771378 42.1644436,79.8771378 C42.0064576,79.7542756 41.7768267,79.583067 41.475551,79.3648424 C41.1742754,79.1466179 41.0231782,78.9958123 41.0231782,78.9141999 L41.0663488,78.832144 C41.1526901,78.6547256 41.3102168,78.3265018 41.5398477,77.8479159 C41.5972554,77.7388036 41.7410043,77.4997324 41.9706351,77.1307023 L42.0565171,77.0282432 C42.1139248,77.0832429 42.2145031,77.151549 42.3591706,77.2331614 C42.6315127,77.4247732 42.796847,77.5613853 42.8542547,77.6429977 C43.0117814,77.8346095 43.1123598,78.0191245 43.1555304,78.1965428 C43.198701,78.4289608 43.1123598,78.750088 42.896966,79.1599243 Z M40.6778134,79.2827865 C40.4197084,79.7609288 40.1758404,80 39.9462095,80 C39.787305,79.8771378 39.5576741,79.7063727 39.2563985,79.4877046 C38.9551228,79.2694801 38.8040257,79.1191181 38.8040257,79.0370621 L38.8471963,78.9550061 C38.9335375,78.7775878 39.0910642,78.4493639 39.3206951,77.9712216 C39.3781028,77.8621093 39.5218517,77.6225946 39.7524011,77.254008 L39.838283,77.151549 C39.8947722,77.2061051 39.9962691,77.2744112 40.140018,77.3560236 C40.4123602,77.5476354 40.5776944,77.6842475 40.6351021,77.7663034 C40.7926289,77.9574717 40.8932072,78.1419867 40.9363778,78.319405 C40.9804669,78.5522666 40.8932072,78.8729502 40.6778134,79.2827865 Z M37.6906215,66.2030996 C38.0056609,65.4773758 38.1634099,64.9882715 38.1634099,64.7371465 C38.1634099,64.5834798 38.0272139,64.2203913 37.7548217,63.6478809 C37.5113197,63.2430893 37.3966765,63.0123626 37.4099751,62.9566074 C37.6975001,62.0486594 37.9414608,61.3786908 38.141857,60.9457949 C38.4426806,61.029201 38.6935199,61.3369877 38.8952918,61.8673418 C39.0672566,62.3002376 39.1530096,62.7050292 39.1530096,63.0821699 C39.1530096,63.584873 38.9810449,64.2833992 38.6361983,65.1768418 C38.4642336,65.6237897 38.1849628,66.3078105 37.7979275,67.2298106 C37.7979275,67.3834773 37.9987823,67.5579955 38.4000334,67.7533653 C38.7723944,68.0044902 38.959492,68.3888836 38.959492,68.9051855 C38.959492,69.8969929 38.6756355,70.9404759 38.1097569,72.0369943 C37.5434197,73.132606 36.8514336,73.9535216 36.0333401,74.4979278 C35.4316928,74.9027194 34.7571325,75.1053418 34.011952,75.1053418 C33.1085639,75.1053418 32.4197878,74.791209 31.9465409,74.1624901 C31.5168583,73.6040319 31.3008706,72.8710553 31.3008706,71.9631073 C31.3008706,71.1254199 31.5599642,70.0923627 32.0758584,68.8634825 C32.1331799,68.7374667 32.3051447,68.3539799 32.5917526,67.7112089 C32.6211012,67.6414016 32.7788502,67.3272689 33.0654581,66.7688106 C33.4093876,66.0847898 33.6171209,65.7493522 33.6886583,65.7634043 C33.7611128,65.7774564 33.7826657,65.8540631 33.753317,65.9936777 C33.7102112,66.1895007 33.6671054,66.3359147 33.6244581,66.4333729 L32.5917526,68.7796231 C32.2620389,69.5339044 32.0969527,70.16217 32.0969527,70.6648731 C32.0969527,72.116774 32.8719404,72.8429511 34.4205402,72.8429511 C35.281281,72.8429511 36.0906617,72.6262765 36.8514336,72.193834 C37.7548217,71.6770788 38.2065157,71.0347611 38.2065157,70.2668809 C38.2065157,70.2387767 37.9520079,70.0715112 37.4425338,69.7641778 C36.9335181,69.4572977 36.6794689,69.1708158 36.6794689,68.9051855 C36.6794689,68.5842533 36.7725592,68.2211648 36.9587396,67.8159199 C37.2742376,67.1454979 37.5177397,66.6083445 37.6906215,66.2030996 Z M37.4877147,79.1599243 C37.2296096,79.6380666 36.9848231,79.8771378 36.7551923,79.8771378 C36.5972062,79.7542756 36.3675754,79.583067 36.0662997,79.3648424 C35.765024,79.1466179 35.6139269,78.9958123 35.6139269,78.9141999 L35.6570975,78.832144 C35.7434387,78.6547256 35.9009655,78.3265018 36.1305964,77.8479159 C36.1880041,77.7388036 36.331753,77.4997324 36.5613838,77.1307023 L36.6472658,77.0282432 C36.7046735,77.0832429 36.8052518,77.151549 36.9499192,77.2331614 C37.2222614,77.4247732 37.3875956,77.5613853 37.4450034,77.6429977 C37.6025301,77.8346095 37.7031084,78.0191245 37.746279,78.1965428 C37.7894496,78.4289608 37.7031084,78.750088 37.4877147,79.1599243 Z M35.2685621,79.2827865 C35.0104571,79.7609288 34.7665891,80 34.5369582,80 C34.3780537,79.8771378 34.1484228,79.7063727 33.8471472,79.4877046 C33.5458715,79.2694801 33.3947744,79.1191181 33.3947744,79.0370621 L33.437945,78.9550061 C33.5242862,78.7775878 33.6818129,78.4493639 33.9114438,77.9712216 C33.9688515,77.8621093 34.1126004,77.6225946 34.3431498,77.254008 L34.4290317,77.151549 C34.4855209,77.2061051 34.5870178,77.2744112 34.7307667,77.3560236 C35.0031089,77.5476354 35.1684431,77.6842475 35.2258508,77.7663034 C35.3833776,77.9574717 35.4839559,78.1419867 35.5271265,78.319405 C35.5712156,78.5522666 35.4839559,78.8729502 35.2685621,79.2827865 Z M29.0372328,64.9567217 C29.1095205,64.9153483 29.1966364,64.8321517 29.2981172,64.7071321 C29.6164611,64.3055402 29.7684506,63.7303598 29.7540857,62.9824904 L29.7323067,61.5901851 C29.7179419,60.8976302 29.7614998,60.4335284 29.8625173,60.1978799 L30.6456339,58.3482185 C30.6743636,58.3347272 30.7105074,58.3207862 30.7540654,58.3068451 C30.7684303,58.3347272 30.7758444,58.3900417 30.7758444,58.4732382 C30.7758444,58.7088868 30.7614795,59.0340278 30.7322864,59.4495608 C30.7035567,59.934799 30.6887284,60.2675851 30.6887284,60.4474695 C30.6599987,61.4863019 30.60949,62.2692488 30.5367389,62.7954106 C30.3777987,63.8625748 30.0589915,64.6796997 29.5803172,65.2476847 C29.5223944,65.3169402 29.3412118,65.50402 29.0372328,65.808924 L29.0372328,64.9567217 Z M33.4831613,55.097865 L36.2150932,52.9413183 C36.7410947,52.5221534 37.3676554,51.9851692 38.0938652,51.3285531 C38.2931633,51.1477458 38.8546563,50.6166525 39.7797092,49.7375391 C40.7616394,48.802235 41.2949213,48.2856426 41.3813748,48.187762 C41.3813748,48.2580004 41.3663592,48.3205353 41.337693,48.3762729 C41.1529555,49.2136963 40.3780587,50.3026187 39.0120928,51.64304 C38.3855321,52.2575131 37.4390933,53.0808889 36.1723214,54.1136205 C36.1154441,54.1557636 35.062531,54.9655448 33.014037,56.5429642 L31.5415967,57.6735765 C30.9432472,58.1344313 30.6306494,58.343334 30.6019832,58.3016441 C30.8294925,57.6876242 31.1279848,57.1850795 31.4979149,56.79401 C31.8400889,56.4450835 32.501231,55.880004 33.4831613,55.097865 Z M28.4211252,59.3752903 C28.1639532,59.8594747 27.9200517,60.1015669 27.691251,60.1015669 C27.5338361,59.9771521 27.3050354,59.80378 27.0048489,59.5827979 C26.7046624,59.3618158 26.5541115,59.2091045 26.5541115,59.1264608 L26.5971261,59.043368 C26.6831551,58.8637077 26.8401124,58.5313362 27.0689131,58.0467027 C27.1261133,57.9362116 27.2693425,57.6941194 27.4981432,57.3204261 L27.5837146,57.2166723 C27.6409148,57.272367 27.7411295,57.3415362 27.885274,57.4241799 C28.1566316,57.618213 28.3213681,57.7565514 28.3785683,57.8391951 C28.5355255,58.0332282 28.6357402,58.2200748 28.6787548,58.3997351 C28.7217693,58.63509 28.6357402,58.9602751 28.4211252,59.3752903 Z M27.3050354,56.8016571 C27.0478634,57.2862907 26.8035043,57.5283829 26.5756188,57.5283829 C26.5330619,57.5283829 26.303346,57.361748 25.8883015,57.0298257 C25.588115,56.7949199 25.4380217,56.6354714 25.4380217,56.5528277 L25.4810363,56.4697348 C25.5666077,56.2900745 25.7240226,55.9577031 25.9528233,55.4730695 C26.0100235,55.3625785 26.1527951,55.1204863 26.3815958,54.746793 L26.4676249,54.6430392 C26.524825,54.6987338 26.6250397,54.767903 26.7687266,54.8505468 C27.0405418,55.0445798 27.2048207,55.1829182 27.2620209,55.2655619 C27.4194357,55.459595 27.5196505,55.6464417 27.562665,55.8261019 C27.6052219,56.0614569 27.5196505,56.3866419 27.3050354,56.8016571 Z M26.2099953,59.499705 C25.9528233,59.9838894 25.709837,60.2259816 25.4810363,60.2259816 C25.3227062,60.1015669 25.0939055,59.9286439 24.793719,59.7072126 C24.4935325,59.4862305 24.3429816,59.3339684 24.3429816,59.2508756 L24.3859962,59.1677827 C24.4720252,58.9881224 24.6289825,58.655751 24.8577832,58.1715666 C24.9149834,58.0610755 25.0582126,57.8185342 25.2879285,57.44529 L25.3735,57.3415362 C25.4297849,57.3967817 25.5309148,57.4659509 25.6741441,57.5485946 C25.9455017,57.7426277 26.1102382,57.8809661 26.1674384,57.964059 C26.3243956,58.1576429 26.4246103,58.3444896 26.4676249,58.5241498 C26.5115546,58.7599539 26.4246103,59.0846898 26.2099953,59.499705 Z M20.3777309,67.0339951 L20.1268434,68.0719245 C19.9040304,68.7357592 19.7231062,69.1809135 19.5840708,69.4064706 C19.3184776,69.8585017 18.977128,70.1693303 18.5595763,70.3384981 L17.8064681,70.656662 C17.4722485,70.7978644 17.145159,70.8684656 16.8238625,70.8684656 C16.7543448,70.8684656 16.712456,70.8400418 16.6986416,70.7836525 C16.6567527,70.656662 16.851937,70.4233113 17.2846399,70.0845172 C17.4236753,69.9717387 17.7021916,69.7525999 18.1201889,69.4275593 C18.6638528,69.003952 19.109479,68.4817782 19.4584042,67.8601209 C19.5421819,67.7189185 19.7231062,67.2173749 20.0016225,66.3559485 L20.25251,65.5930888 C20.3915454,65.1557281 20.5029519,64.9365893 20.5876209,64.9365893 C20.6562473,65.0356143 20.6918974,65.1062155 20.6918974,65.1483929 C20.6918974,65.5440347 20.5876209,66.1725688 20.3777309,67.0339951 Z M17.6787238,63.5659203 C17.536643,63.8579465 17.4515755,64.0252061 17.4235213,64.0667949 C17.3103996,64.2340545 17.211305,64.3176843 17.12669,64.3176843 C16.9710346,64.2060272 16.87194,64.1504247 16.8294063,64.1504247 C16.4185483,64.1504247 15.9027135,64.4293414 15.2805442,64.9862705 C14.5158417,65.6684183 14.1339429,66.1489506 14.1339429,66.4274152 C14.1339429,66.5390722 14.1837165,66.657058 14.282811,66.7827287 L14.6642573,66.9707828 C15.2167436,67.1240287 15.492308,67.5069175 15.492308,68.1194492 C15.492308,68.7880354 15.3651593,69.5294022 15.1108617,70.3440015 C14.8552067,71.1586008 14.5443484,71.8443651 14.1764767,72.4017463 C13.2280645,73.8220965 12.0185675,74.5322716 10.5470808,74.5322716 C9.73984446,74.5322716 9.11450782,74.2782179 8.66790344,73.7701104 C8.22265651,73.2615509 8.00003305,72.6033619 8.00003305,71.7959954 C8.00003305,70.6260825 8.3321583,69.3381838 8.99776625,67.9313952 L10.1004764,65.5915694 C10.2561318,65.2575023 10.3692535,65.0906947 10.4407464,65.0906947 C10.539841,65.0906947 10.589162,65.153078 10.589162,65.2787488 C10.589162,65.3759401 10.5751349,65.4527891 10.5470808,65.5083916 C9.37242525,68.0290386 8.78464501,69.6930453 8.78464501,70.5008638 C8.78464501,71.1133955 9.02491545,71.5799141 9.5068138,71.9004196 C9.91676676,72.1788842 10.4479862,72.3181165 11.0982096,72.3181165 C12.2448109,72.3181165 13.1859833,71.9279948 13.9221791,71.1482036 C14.5018146,70.5352199 14.7918586,70.0130988 14.7918586,69.5818403 C14.7918586,69.4285944 14.5511357,69.2893621 14.0705948,69.1636914 C13.4334935,68.9968838 13.1149428,68.6280087 13.1149428,68.0570659 C13.1149428,67.0960014 13.6239904,65.9749102 14.6429905,64.6937923 C15.0389163,64.2060272 15.4004532,63.8095768 15.7257912,63.503085 C16.6176425,62.6812528 17.3456936,62.2287478 17.912207,62.1451181 C18.0393557,62.2287478 18.0959166,62.3196105 18.0818895,62.4168018 C18.0253286,62.7373074 17.8909401,63.1201962 17.6787238,63.5659203 Z" id="Combined-Shape"></path>
                        </g>
                    </g>
                </g>
            </g>
        </g>
    </g>
</svg>
